%TF.GenerationSoftware,KiCad,Pcbnew,(6.0.1-0)*%
%TF.CreationDate,2022-09-16T03:33:08-04:00*%
%TF.ProjectId,mini_proj1,6d696e69-5f70-4726-9f6a-312e6b696361,rev?*%
%TF.SameCoordinates,Original*%
%TF.FileFunction,Copper,L1,Top*%
%TF.FilePolarity,Positive*%
%FSLAX46Y46*%
G04 Gerber Fmt 4.6, Leading zero omitted, Abs format (unit mm)*
G04 Created by KiCad (PCBNEW (6.0.1-0)) date 2022-09-16 03:33:08*
%MOMM*%
%LPD*%
G01*
G04 APERTURE LIST*
G04 Aperture macros list*
%AMRoundRect*
0 Rectangle with rounded corners*
0 $1 Rounding radius*
0 $2 $3 $4 $5 $6 $7 $8 $9 X,Y pos of 4 corners*
0 Add a 4 corners polygon primitive as box body*
4,1,4,$2,$3,$4,$5,$6,$7,$8,$9,$2,$3,0*
0 Add four circle primitives for the rounded corners*
1,1,$1+$1,$2,$3*
1,1,$1+$1,$4,$5*
1,1,$1+$1,$6,$7*
1,1,$1+$1,$8,$9*
0 Add four rect primitives between the rounded corners*
20,1,$1+$1,$2,$3,$4,$5,0*
20,1,$1+$1,$4,$5,$6,$7,0*
20,1,$1+$1,$6,$7,$8,$9,0*
20,1,$1+$1,$8,$9,$2,$3,0*%
G04 Aperture macros list end*
%TA.AperFunction,SMDPad,CuDef*%
%ADD10RoundRect,0.225000X0.225000X0.250000X-0.225000X0.250000X-0.225000X-0.250000X0.225000X-0.250000X0*%
%TD*%
%TA.AperFunction,SMDPad,CuDef*%
%ADD11RoundRect,0.225000X-0.225000X-0.250000X0.225000X-0.250000X0.225000X0.250000X-0.225000X0.250000X0*%
%TD*%
%TA.AperFunction,SMDPad,CuDef*%
%ADD12RoundRect,0.200000X-0.200000X-0.275000X0.200000X-0.275000X0.200000X0.275000X-0.200000X0.275000X0*%
%TD*%
%TA.AperFunction,SMDPad,CuDef*%
%ADD13RoundRect,0.243750X0.243750X0.456250X-0.243750X0.456250X-0.243750X-0.456250X0.243750X-0.456250X0*%
%TD*%
%TA.AperFunction,SMDPad,CuDef*%
%ADD14R,0.599999X1.500000*%
%TD*%
%TA.AperFunction,SMDPad,CuDef*%
%ADD15RoundRect,0.200000X0.275000X-0.200000X0.275000X0.200000X-0.275000X0.200000X-0.275000X-0.200000X0*%
%TD*%
%TA.AperFunction,SMDPad,CuDef*%
%ADD16RoundRect,0.200000X-0.275000X0.200000X-0.275000X-0.200000X0.275000X-0.200000X0.275000X0.200000X0*%
%TD*%
%TA.AperFunction,SMDPad,CuDef*%
%ADD17RoundRect,0.200000X0.200000X0.275000X-0.200000X0.275000X-0.200000X-0.275000X0.200000X-0.275000X0*%
%TD*%
%TA.AperFunction,ComponentPad*%
%ADD18O,1.575000X3.150000*%
%TD*%
%TA.AperFunction,ComponentPad*%
%ADD19C,1.508000*%
%TD*%
%TA.AperFunction,ComponentPad*%
%ADD20R,1.508000X1.508000*%
%TD*%
%TA.AperFunction,SMDPad,CuDef*%
%ADD21R,0.355600X1.473200*%
%TD*%
%TA.AperFunction,ViaPad*%
%ADD22C,0.800000*%
%TD*%
%TA.AperFunction,Conductor*%
%ADD23C,0.200000*%
%TD*%
%TA.AperFunction,Conductor*%
%ADD24C,0.508000*%
%TD*%
G04 APERTURE END LIST*
D10*
%TO.P,C1,1*%
%TO.N,Net-(C1-Pad1)*%
X140715995Y-77724000D03*
%TO.P,C1,2*%
%TO.N,GND*%
X139165995Y-77724000D03*
%TD*%
D11*
%TO.P,C2,1*%
%TO.N,Net-(Q1-Pad3)*%
X136118000Y-77724000D03*
%TO.P,C2,2*%
%TO.N,GND*%
X137668000Y-77724000D03*
%TD*%
D12*
%TO.P,R1=47.5k1,2*%
%TO.N,Net-(C3-Pad1)*%
X134238000Y-77724000D03*
%TO.P,R1=47.5k1,1*%
%TO.N,Net-(R1=47.5k1-Pad1)*%
X132588000Y-77724000D03*
%TD*%
D11*
%TO.P,C3,1*%
%TO.N,Net-(C3-Pad1)*%
X135623000Y-75692000D03*
%TO.P,C3,2*%
%TO.N,GND*%
X137173000Y-75692000D03*
%TD*%
D13*
%TO.P,D1,2,A*%
%TO.N,Net-(D1-Pad2)*%
X128681000Y-73914000D03*
%TO.P,D1,1,K*%
%TO.N,GND*%
X130556000Y-73914000D03*
%TD*%
D14*
%TO.P,Q1,3,VOUT*%
%TO.N,Net-(Q1-Pad3)*%
X139699999Y-73272000D03*
%TO.P,Q1,2,VIN*%
%TO.N,Net-(C1-Pad1)*%
X140649998Y-75572000D03*
%TO.P,Q1,1,GND*%
%TO.N,GND*%
X138749999Y-75572000D03*
%TD*%
D15*
%TO.P,R3=10k1,1*%
%TO.N,Net-(R2=10k1-Pad2)*%
X136906000Y-74231000D03*
%TO.P,R3=10k1,2*%
%TO.N,Net-(R3=10k1-Pad2)*%
X136906000Y-72581000D03*
%TD*%
D16*
%TO.P,R4=40.2,1*%
%TO.N,Net-(D1-Pad2)*%
X128778000Y-76074000D03*
%TO.P,R4=40.2,2*%
%TO.N,Net-(R1=47.5k1-Pad1)*%
X128778000Y-77724000D03*
%TD*%
D17*
%TO.P,R=10k2,1*%
%TO.N,Net-(R=10k1-Pad2)*%
X137668000Y-69596000D03*
%TO.P,R=10k2,2*%
%TO.N,GND*%
X136018000Y-69596000D03*
%TD*%
D15*
%TO.P,R2=10k1,2*%
%TO.N,Net-(R2=10k1-Pad2)*%
X130556000Y-76137000D03*
%TO.P,R2=10k1,1*%
%TO.N,Net-(R1=47.5k1-Pad1)*%
X130556000Y-77787000D03*
%TD*%
%TO.P,R=10k1,1*%
%TO.N,Net-(Q1-Pad3)*%
X139700000Y-71246000D03*
%TO.P,R=10k1,2*%
%TO.N,Net-(R=10k1-Pad2)*%
X139700000Y-69596000D03*
%TD*%
D18*
%TO.P,J1,5,Shield*%
%TO.N,GND*%
X128920000Y-81662500D03*
X140320000Y-81662500D03*
D19*
%TO.P,J1,4,GND*%
X131120000Y-79562500D03*
%TO.P,J1,3,D+*%
%TO.N,unconnected-(J1-Pad3)*%
X133620000Y-79562500D03*
%TO.P,J1,2,D-*%
%TO.N,unconnected-(J1-Pad2)*%
X135620000Y-79562500D03*
D20*
%TO.P,J1,1,VBUS*%
%TO.N,Net-(C1-Pad1)*%
X138120000Y-79562500D03*
%TD*%
D21*
%TO.P,U1,8,V+*%
%TO.N,Net-(Q1-Pad3)*%
X132375001Y-69570999D03*
%TO.P,U1,7*%
%TO.N,unconnected-(U1-Pad7)*%
X133024999Y-69570999D03*
%TO.P,U1,6,-*%
%TO.N,Net-(R3=10k1-Pad2)*%
X133675001Y-69570999D03*
%TO.P,U1,5,+*%
%TO.N,Net-(R=10k1-Pad2)*%
X134324999Y-69570999D03*
%TO.P,U1,4,V-*%
%TO.N,GND*%
X134324999Y-75209001D03*
%TO.P,U1,3,+*%
%TO.N,Net-(R2=10k1-Pad2)*%
X133675001Y-75209001D03*
%TO.P,U1,2,-*%
%TO.N,Net-(C3-Pad1)*%
X133024999Y-75209001D03*
%TO.P,U1,1*%
%TO.N,Net-(R1=47.5k1-Pad1)*%
X132375001Y-75209001D03*
%TD*%
D22*
%TO.N,GND*%
X138684000Y-75692000D03*
X137668000Y-77724000D03*
X134366000Y-76454000D03*
X136144000Y-69596000D03*
X130556000Y-73914000D03*
X139192000Y-77724000D03*
X137160000Y-75692000D03*
X129032000Y-81788000D03*
X140462000Y-81788000D03*
X131120007Y-79562503D03*
%TD*%
D23*
%TO.N,Net-(R1=47.5k1-Pad1)*%
X132588000Y-77724000D02*
X130619000Y-77724000D01*
X132375001Y-75717001D02*
X132375001Y-77511001D01*
%TO.N,Net-(C3-Pad1)*%
X133024999Y-75717001D02*
X133024999Y-76890999D01*
X133024999Y-76890999D02*
X133858000Y-77724000D01*
X135623000Y-76339000D02*
X134238000Y-77724000D01*
X133858000Y-77724000D02*
X134238000Y-77724000D01*
%TO.N,Net-(Q1-Pad3)*%
X136906000Y-76708000D02*
X139700000Y-76708000D01*
X136118000Y-77496000D02*
X136906000Y-76708000D01*
X136118000Y-77724000D02*
X136118000Y-77496000D01*
%TO.N,Net-(R1=47.5k1-Pad1)*%
X132375001Y-77511001D02*
X132588000Y-77724000D01*
D24*
%TO.N,Net-(C1-Pad1)*%
X140715995Y-77724000D02*
X140715995Y-75637997D01*
X138877495Y-79562500D02*
X140715995Y-77724000D01*
X138120000Y-79562500D02*
X138877495Y-79562500D01*
D23*
%TO.N,GND*%
X134324999Y-75209001D02*
X134324999Y-76412999D01*
X134324999Y-76412999D02*
X134366000Y-76454000D01*
%TO.N,Net-(R=10k1-Pad2)*%
X134324999Y-70570999D02*
X134366000Y-70612000D01*
X134324999Y-69570999D02*
X134324999Y-70570999D01*
X134366000Y-70612000D02*
X138684000Y-70612000D01*
%TO.N,Net-(R3=10k1-Pad2)*%
X133675001Y-69570999D02*
X133675001Y-68651001D01*
X131572000Y-68580000D02*
X131572000Y-71882000D01*
X133675001Y-68651001D02*
X133350000Y-68326000D01*
X133350000Y-68326000D02*
X131826000Y-68326000D01*
X136906000Y-72390000D02*
X136906000Y-72581000D01*
X131826000Y-68326000D02*
X131572000Y-68580000D01*
X131572000Y-71882000D02*
X131826000Y-72136000D01*
X136652000Y-72136000D02*
X136906000Y-72390000D01*
X131826000Y-72136000D02*
X136652000Y-72136000D01*
%TO.N,Net-(R2=10k1-Pad2)*%
X133604000Y-74168000D02*
X133604000Y-73152000D01*
X135573000Y-72898000D02*
X136906000Y-74231000D01*
X133604000Y-73152000D02*
X133858000Y-72898000D01*
X133858000Y-72898000D02*
X135573000Y-72898000D01*
D24*
%TO.N,Net-(C1-Pad1)*%
X140715995Y-75637997D02*
X140649998Y-75572000D01*
D23*
%TO.N,Net-(Q1-Pad3)*%
X139700000Y-76708000D02*
X139699999Y-73272000D01*
D24*
X132375001Y-69570999D02*
X132375001Y-70907001D01*
X132375001Y-70907001D02*
X132714000Y-71246000D01*
X132714000Y-71246000D02*
X139700000Y-71246000D01*
D23*
%TO.N,Net-(C3-Pad1)*%
X135623000Y-75692000D02*
X135623000Y-76339000D01*
%TO.N,Net-(R2=10k1-Pad2)*%
X131826000Y-74168000D02*
X133604000Y-74168000D01*
%TO.N,Net-(R1=47.5k1-Pad1)*%
X130619000Y-77724000D02*
X130556000Y-77787000D01*
X128841000Y-77787000D02*
X128778000Y-77724000D01*
X130556000Y-77787000D02*
X128841000Y-77787000D01*
D24*
%TO.N,Net-(Q1-Pad3)*%
X139699999Y-73526000D02*
X139700000Y-71246000D01*
D23*
%TO.N,Net-(R=10k1-Pad2)*%
X137668000Y-69596000D02*
X139700000Y-69596000D01*
%TO.N,Net-(R2=10k1-Pad2)*%
X130556000Y-75438000D02*
X131826000Y-74168000D01*
D24*
%TO.N,Net-(C1-Pad1)*%
X140649998Y-77657998D02*
X140716000Y-77724000D01*
D23*
%TO.N,Net-(R2=10k1-Pad2)*%
X130556000Y-76137000D02*
X130556000Y-75438000D01*
%TO.N,Net-(Q1-Pad3)*%
X132375001Y-69570999D02*
X132334000Y-69612000D01*
%TO.N,Net-(D1-Pad2)*%
X128681000Y-73914000D02*
X128778000Y-74011000D01*
X128778000Y-74011000D02*
X128778000Y-76074000D01*
%TO.N,Net-(R2=10k1-Pad2)*%
X133604000Y-74168000D02*
X133604000Y-75138000D01*
%TO.N,Net-(R=10k1-Pad2)*%
X138684000Y-70612000D02*
X139700000Y-69596000D01*
%TO.N,Net-(R2=10k1-Pad2)*%
X133604000Y-75138000D02*
X133675001Y-75209001D01*
D24*
%TO.N,GND*%
X131120000Y-79562500D02*
X131020000Y-79562500D01*
%TD*%
M02*
